<?xml version="1.0" standalone="no"?>
<!DOCTYPE svg PUBLIC "-//W3C//DTD SVG 20010904//EN"
 "http://www.w3.org/TR/2001/REC-SVG-20010904/DTD/svg10.dtd">
<svg version="1.0" xmlns="http://www.w3.org/2000/svg"
 width="474.000000pt" height="474.000000pt" viewBox="0 0 474.000000 474.000000"
 preserveAspectRatio="xMidYMid meet">

<g transform="translate(0.000000,474.000000) scale(0.100000,-0.100000)"
fill="#000000" stroke="none">
<path d="M458 4707 c-20 -17 -41 -42 -47 -54 -8 -15 -11 -678 -11 -2285 l0
-2263 25 -37 c14 -20 34 -39 45 -43 11 -3 20 -11 20 -16 0 -5 724 -9 1880 -9
1034 0 1880 3 1880 8 0 4 14 15 30 24 64 37 60 -133 60 2345 0 2238 0 2258
-20 2291 -11 18 -31 38 -45 44 -14 6 -25 15 -25 20 0 4 -845 8 -1877 8 l-1878
0 -37 -33z m3372 -857 l0 -500 -1460 0 -1460 0 0 500 0 500 1460 0 1460 0 0
-500z m-32 -1229 c17 -18 32 -45 35 -68 4 -21 7 -429 6 -908 0 -647 -3 -879
-12 -904 -7 -19 -25 -44 -40 -55 -27 -20 -40 -21 -306 -21 -303 0 -319 3 -347
57 -12 23 -14 173 -14 942 l0 915 31 36 31 35 293 0 293 0 30 -29z m-2405 -7
c56 -20 142 -80 177 -124 17 -21 43 -65 58 -97 24 -51 27 -70 27 -158 0 -92
-3 -106 -32 -167 -78 -166 -249 -258 -424 -229 -209 34 -346 204 -338 415 10
229 205 400 434 379 33 -3 77 -12 98 -19z m958 16 c169 -32 301 -166 327 -331
26 -170 -57 -338 -206 -417 -245 -131 -537 15 -585 291 -35 205 104 407 313
453 70 16 86 16 151 4z m-969 -1149 c247 -85 353 -363 223 -585 -36 -61 -115
-132 -183 -164 -50 -24 -69 -27 -162 -27 -97 0 -110 2 -170 31 -83 40 -151
107 -192 192 -31 62 -33 73 -33 172 0 99 2 110 32 171 30 60 105 148 149 173
99 56 237 71 336 37z m1069 -18 c251 -117 310 -445 117 -645 -157 -162 -430
-156 -582 12 -165 183 -127 474 80 606 76 49 135 64 234 61 71 -2 97 -8 151
-34z"/>
<path d="M3300 4190 c-20 -12 -28 -128 -29 -407 -1 -208 -1 -212 21 -227 32
-23 333 -23 365 -1 20 14 21 25 28 310 7 275 6 297 -10 315 -17 18 -32 20
-189 20 -94 0 -178 -5 -186 -10z m280 -183 c0 -46 -3 -145 -7 -220 l-6 -137
-94 0 -93 0 0 220 0 220 100 0 100 0 0 -83z"/>
<path d="M3255 1845 c-30 -29 -30 -36 -7 -65 18 -22 23 -23 225 -22 225 0 237
3 237 53 0 53 -23 59 -238 59 -192 0 -193 0 -217 -25z"/>
<path d="M3273 1620 c-48 -20 -50 -75 -3 -100 28 -15 379 -13 409 3 35 18 44
51 21 79 -18 22 -23 23 -212 25 -106 1 -203 -2 -215 -7z"/>
<path d="M1215 2548 c-75 -41 -74 -147 2 -183 44 -21 85 -12 118 27 70 83 -25
209 -120 156z"/>
<path d="M986 2274 c-16 -16 -20 -27 -16 -54 4 -37 27 -40 290 -40 280 0 293
2 293 55 0 53 -13 55 -294 55 -221 0 -260 -2 -273 -16z"/>
<path d="M1224 2106 c-115 -50 -59 -222 62 -192 41 11 74 53 74 95 0 46 -23
79 -66 97 -39 16 -32 16 -70 0z"/>
<path d="M2077 2442 c-31 -34 -20 -61 53 -136 l69 -72 -69 -71 c-74 -76 -85
-106 -52 -136 31 -28 51 -20 128 55 l74 71 74 -71 c44 -43 82 -72 95 -72 25 0
61 33 61 56 0 9 -33 51 -74 93 l-75 76 75 76 c41 42 74 84 74 93 0 22 -36 56
-60 56 -11 0 -53 -32 -95 -71 l-75 -72 -74 72 c-77 74 -101 84 -129 53z"/>
<path d="M1224 1375 c-22 -22 -24 -32 -24 -119 l0 -94 -101 -4 c-92 -3 -103
-5 -120 -27 -24 -29 -24 -33 0 -62 17 -22 28 -24 120 -27 l101 -4 0 -94 c0
-87 2 -97 24 -119 25 -25 55 -25 77 1 7 9 12 54 13 112 l1 97 101 5 c115 6
137 16 132 64 -4 44 -35 56 -146 56 l-93 0 2 100 c1 63 -3 105 -10 114 -22 26
-52 26 -77 1z"/>
<path d="M2020 1147 c-17 -8 -26 -22 -28 -43 -6 -57 4 -59 290 -59 l260 0 19
24 c25 30 24 37 -6 66 l-24 25 -243 0 c-175 0 -250 -4 -268 -13z"/>
</g>
</svg>
